Coordinates
version=1
nRows=19
nColumns=63
inDegrees=yes

Units are S.I. units (second, meters, Newtons, ...)
If the header above contains a line with 'inDegrees', this indicates whether rotational values are in degrees (yes) or radians (no).

endheader
time	pelvis_tilt	pelvis_list	pelvis_rotation	pelvis_tx	pelvis_ty	pelvis_tz	hip_flexion_r	hip_adduction_r	hip_rotation_r	knee_angle_r	knee_angle_r_beta	ankle_angle_r	subtalar_angle_r	mtp_angle_r	hip_flexion_l	hip_adduction_l	hip_rotation_l	knee_angle_l	knee_angle_l_beta	ankle_angle_l	subtalar_angle_l	mtp_angle_l	L5_S1_Flex_Ext	L5_S1_Lat_Bending	L5_S1_axial_rotation	L4_L5_Flex_Ext	L4_L5_Lat_Bending	L4_L5_axial_rotation	L3_L4_Flex_Ext	L3_L4_Lat_Bending	L3_L4_axial_rotation	L2_L3_Flex_Ext	L2_L3_Lat_Bending	L2_L3_axial_rotation	L1_L2_Flex_Ext	L1_L2_Lat_Bending	L1_L2_axial_rotation	L1_T12_Flex_Ext	L1_T12_Lat_Bending	L1_T12_axial_rotation	Abs_r3	Abs_r2	Abs_r1	Abs_t1	Abs_t2	neck_flexion	neck_bending	neck_rotation	arm_flex_r	arm_add_r	arm_rot_r	elbow_flex_r	pro_sup_r	wrist_flex_r	wrist_dev_r	arm_flex_l	arm_add_l	arm_rot_l	elbow_flex_l	pro_sup_l	wrist_flex_l	wrist_dev_l
0.000000	2.297611	-3.800204	97.406194	0.131469	0.599872	0.864250	11.359072	-3.418996	-16.316064	11.420109	0.199319	28.149032	16.771138	0.000000	11.889932	3.512947	13.003625	7.098145	0.123886	20.579638	-14.836218	0.000000	0.354466	-0.161931	-0.463666	0.658278	-0.215368	-0.492645	0.582351	-0.393719	-0.492645	0.405119	-0.393719	-0.405708	0.329157	-0.330210	-0.376729	0.202542	-0.250831	-0.347749	2.531912	-1.831795	-2.578771	0.000000	0.000000	23.140243	3.701786	16.493152	31.720399	-3.575146	105.721337	34.459358	87.196282	-8.074400	-2.633869	18.612906	-6.159172	61.706172	37.636022	66.841139	3.763054	17.853512
0.016667	2.179778	-3.883971	97.261526	0.131698	0.600159	0.864631	11.549408	-3.533938	-16.051265	11.426039	0.199422	28.408564	16.879309	0.000000	12.051480	3.646488	12.789728	7.242377	0.126403	21.397266	-14.643675	0.000000	0.356921	-0.171279	-0.373286	0.662837	-0.227801	-0.396616	0.586385	-0.416447	-0.396616	0.407924	-0.416447	-0.326625	0.331436	-0.349272	-0.303295	0.203944	-0.265311	-0.279964	2.549448	-1.937540	-2.076103	0.000000	0.000000	23.675409	3.596119	16.506515	31.628196	-4.306820	104.293701	35.053447	86.550795	-7.969464	-3.177624	18.828267	-6.538931	62.734188	37.820723	68.415664	3.890236	14.728252
0.033333	2.093847	-3.932152	97.225910	0.131816	0.600396	0.864807	11.643684	-3.611826	-15.872161	11.372607	0.198489	28.645934	16.967502	0.000000	12.156453	3.752759	12.666746	7.356694	0.128399	22.022968	-14.475622	0.000000	0.358890	-0.179282	-0.320010	0.666494	-0.238445	-0.340010	0.589620	-0.435905	-0.340010	0.410175	-0.435905	-0.280009	0.333265	-0.365591	-0.260008	0.205070	-0.277707	-0.240007	2.563514	-2.028069	-1.779799	0.000000	0.000000	24.071205	3.533105	16.495686	31.644514	-4.787983	103.651388	35.482559	86.124192	-8.139523	-3.581623	18.967573	-6.842040	63.479908	38.005496	69.914668	4.072246	12.278621
0.050000	2.036521	-3.948665	97.285283	0.131837	0.600587	0.864803	11.653328	-3.656864	-15.770670	11.268989	0.196681	28.861162	17.037357	0.000000	12.210927	3.834274	12.624845	7.443972	0.129922	22.474988	-14.331063	0.000000	0.360406	-0.185986	-0.299403	0.669310	-0.247361	-0.318116	0.592111	-0.452205	-0.318116	0.411908	-0.452205	-0.261978	0.334673	-0.379262	-0.243265	0.205936	-0.288092	-0.224552	2.574343	-2.103907	-1.665190	0.000000	0.000000	24.342727	3.508988	16.465641	31.754644	-5.047806	103.694506	35.764656	85.891304	-8.546712	-3.860322	19.039403	-7.075756	63.974992	38.189087	71.312750	4.296452	10.442688
0.066667	2.004505	-3.937427	97.425582	0.131773	0.600736	0.864647	11.589765	-3.673259	-15.738710	11.124365	0.194157	29.054264	17.090511	0.000000	12.220977	3.893550	12.654192	7.507087	0.131023	22.771573	-14.209000	0.000000	0.361501	-0.191437	-0.307030	0.671343	-0.254611	-0.326220	0.593909	-0.465460	-0.326220	0.413159	-0.465460	-0.268652	0.335689	-0.390379	-0.249462	0.206561	-0.296536	-0.230273	2.582163	-2.165576	-1.707611	0.000000	0.000000	24.505072	3.520012	16.421355	31.943875	-5.115458	104.323160	35.917699	85.826960	-9.153163	-4.028174	19.052337	-7.247337	64.251096	38.370240	72.584506	4.550224	9.158519
0.083333	1.994502	-3.902355	97.632741	0.131639	0.600846	0.864362	11.464423	-3.665216	-15.768200	10.947910	0.191077	29.225260	17.128603	0.000000	12.192678	3.933103	12.744952	7.548913	0.131753	22.930967	-14.108439	0.000000	0.362207	-0.195683	-0.338457	0.672654	-0.260258	-0.359610	0.595069	-0.475783	-0.359610	0.413966	-0.475783	-0.296150	0.336345	-0.399036	-0.274996	0.206965	-0.303112	-0.253842	2.587206	-2.213600	-1.882394	0.000000	0.000000	24.573337	3.562419	16.367802	32.197499	-5.020107	105.437458	35.959648	85.905989	-9.921010	-4.099635	19.014954	-7.364042	64.339882	38.547698	73.704536	4.820931	8.364184
0.100000	2.003218	-3.847369	97.892699	0.131450	0.600919	0.863976	11.288729	-3.636941	-15.851058	10.748803	0.187602	29.374167	17.153271	0.000000	12.132107	3.955447	12.887291	7.572328	0.132162	22.971417	-14.028384	0.000000	0.362556	-0.198768	-0.389247	0.673303	-0.264361	-0.413574	0.595643	-0.483285	-0.413574	0.414365	-0.483285	-0.340591	0.336670	-0.405328	-0.316263	0.207165	-0.307892	-0.291935	2.589702	-2.248504	-2.164873	0.000000	0.000000	24.562619	3.632454	16.309958	32.500803	-4.790924	106.937504	35.908466	86.103222	-10.812388	-4.089160	18.935833	-7.433129	64.273007	38.720206	74.647437	5.095943	7.997750
0.116667	2.027355	-3.776384	98.191390	0.131218	0.600961	0.863513	11.074108	-3.592640	-15.979202	10.536220	0.183892	29.501004	17.166154	0.000000	12.045338	3.963098	13.071375	7.580206	0.132300	22.911167	-13.967837	0.000000	0.362581	-0.200740	-0.454965	0.673350	-0.266984	-0.483400	0.595685	-0.488079	-0.483400	0.414394	-0.488079	-0.398094	0.336693	-0.409349	-0.369659	0.207179	-0.310946	-0.341224	2.589882	-2.270810	-2.530380	0.000000	0.000000	24.488014	3.726361	16.252798	32.839079	-4.457077	108.723407	35.782113	86.393488	-11.789429	-4.011204	18.823553	-7.461855	64.082130	38.886508	75.387806	5.362629	7.997285
0.133333	2.063618	-3.693319	98.514750	0.130958	0.600973	0.863000	10.831989	-3.536518	-16.144551	10.319339	0.180106	29.605788	17.168888	0.000000	11.938448	3.958572	13.287369	7.575423	0.132216	22.768465	-13.925803	0.000000	0.362315	-0.201644	-0.531177	0.672854	-0.268187	-0.564376	0.595247	-0.490278	-0.564376	0.414089	-0.490278	-0.464780	0.336445	-0.411193	-0.431581	0.207027	-0.312347	-0.398383	2.587977	-2.281042	-2.954248	0.000000	0.000000	24.364619	3.840382	16.201296	33.197617	-4.047735	110.695272	35.598550	86.751616	-12.814268	-3.880221	18.686695	-7.457480	63.798910	39.045349	75.900242	5.608357	8.300858
0.150000	2.108711	-3.602091	98.848716	0.130683	0.600960	0.862462	10.573796	-3.472781	-16.339021	10.107338	0.176406	29.688538	17.163113	0.000000	11.817511	3.944385	13.525439	7.560855	0.131962	22.561554	-13.901285	0.000000	0.361788	-0.201528	-0.613448	0.671877	-0.268032	-0.651788	0.594382	-0.489995	-0.651788	0.413488	-0.489995	-0.536767	0.335956	-0.410956	-0.498426	0.206726	-0.312167	-0.460086	2.584217	-2.279724	-3.411812	0.000000	0.000000	24.207532	3.970762	16.160429	33.561705	-3.592069	112.753206	35.375738	87.152436	-13.849038	-3.710668	18.533838	-7.427260	63.455006	39.195473	76.159342	5.820498	8.846536
0.166667	2.159338	-3.506617	99.179225	0.130408	0.600925	0.861924	10.310959	-3.405634	-16.554532	9.909393	0.172952	29.749273	17.150468	0.000000	11.688604	3.923051	13.775750	7.539378	0.131587	22.308680	-13.893288	0.000000	0.361034	-0.200437	-0.697341	0.670477	-0.266581	-0.740925	0.593143	-0.487342	-0.740925	0.412626	-0.487342	-0.610174	0.335256	-0.408730	-0.566590	0.206295	-0.310476	-0.523006	2.578832	-2.267379	-3.878403	0.000000	0.000000	24.031848	4.113744	16.135171	33.916636	-3.119247	114.797316	35.131640	87.570778	-14.855873	-3.516997	18.373560	-7.378456	63.082077	39.335624	76.139704	5.986420	9.572387
0.183333	2.201687	-3.407447	99.481906	0.130180	0.600901	0.861462	10.057734	-3.348547	-16.771340	9.744615	0.170076	29.777245	17.127564	0.000000	11.554645	3.910640	14.124604	7.517767	0.131210	22.035654	-14.004060	0.000000	0.359061	-0.199171	-0.771870	0.666813	-0.264898	-0.820112	0.589902	-0.484265	-0.820112	0.410371	-0.484265	-0.675386	0.333424	-0.406150	-0.627144	0.205168	-0.308516	-0.578903	2.564739	-2.253063	-4.292910	0.000000	0.000000	23.844164	4.264880	16.137413	34.286981	-2.692212	116.701222	34.931909	87.981716	-15.811226	-3.327841	18.287681	-7.331787	62.863177	39.430986	76.712321	6.361742	10.264758
0.200000	2.237808	-3.318900	99.726546	0.130000	0.600830	0.861071	9.839799	-3.307743	-17.004103	9.641593	0.168278	29.787456	17.105272	0.000000	11.433835	3.894728	14.367586	7.498811	0.130879	21.804159	-14.003087	0.000000	0.357440	-0.196648	-0.836181	0.663802	-0.261542	-0.888443	0.587238	-0.478130	-0.888443	0.408518	-0.478130	-0.731659	0.331919	-0.401005	-0.679397	0.204241	-0.304608	-0.627136	2.553158	-2.224523	-4.650590	0.000000	0.000000	23.718620	4.438104	16.212016	34.622049	-2.310793	118.422930	34.742731	88.412622	-16.742386	-3.183897	18.167746	-7.284308	62.586494	39.546216	76.138132	6.465015	11.221384
0.216667	2.269311	-3.242801	99.915228	0.129854	0.600728	0.860779	9.664420	-3.281419	-17.244217	9.599472	0.167542	29.778409	17.076195	0.000000	11.328367	3.879643	14.568502	7.477987	0.130515	21.586902	-14.007633	0.000000	0.356237	-0.193154	-0.882881	0.661567	-0.256895	-0.938061	0.585261	-0.469634	-0.938061	0.407143	-0.469634	-0.772520	0.330801	-0.393879	-0.717340	0.203554	-0.299195	-0.662160	2.544563	-2.184994	-4.910317	0.000000	0.000000	23.647101	4.609772	16.295068	34.857509	-2.050779	119.627447	34.609678	88.828517	-17.358092	-3.027213	18.092718	-7.236717	62.508446	39.650142	74.439978	6.289352	12.207420
0.233333	2.290645	-3.186367	100.028830	0.129770	0.600602	0.860589	9.543252	-3.273035	-17.471282	9.610908	0.167742	29.756708	17.068974	0.000000	11.250979	3.866475	14.664476	7.465706	0.130301	21.418003	-13.958894	0.000000	0.355258	-0.188824	-0.914367	0.659750	-0.251135	-0.971515	0.583654	-0.459106	-0.971515	0.406025	-0.459106	-0.800071	0.329893	-0.385049	-0.742923	0.202995	-0.292488	-0.685775	2.537574	-2.136010	-5.085435	0.000000	0.000000	23.643795	4.779807	16.446778	34.981743	-1.903150	120.253398	34.523174	89.871472	-17.945897	-2.942345	17.952398	-7.197901	62.218967	39.765968	72.596712	5.993935	13.172166
0.250000	2.314468	-3.148005	100.073474	0.129732	0.600473	0.860534	9.478618	-3.265756	-17.656914	9.667188	0.168724	29.712284	17.050942	0.000000	11.204365	3.847126	14.711052	7.462962	0.130253	21.280179	-13.946261	0.000000	0.354448	-0.182616	-0.924019	0.658245	-0.242879	-0.981770	0.582322	-0.444012	-0.981770	0.405098	-0.444012	-0.808517	0.329140	-0.372390	-0.750766	0.202531	-0.282872	-0.693014	2.531785	-2.065786	-5.139118	0.000000	0.000000	23.688369	4.916610	16.596379	34.943829	-1.923600	120.069246	34.505597	91.148415	-18.215137	-2.886414	17.855015	-7.169525	62.114009	39.842938	70.271579	5.495017	13.866282
0.266667	2.333658	-3.127717	100.040582	0.129754	0.600363	0.860613	9.472422	-3.264344	-17.786109	9.761766	0.170375	29.645211	17.039350	0.000000	11.182131	3.828521	14.728392	7.460785	0.130215	21.153657	-14.017445	0.000000	0.353850	-0.175274	-0.912854	0.657135	-0.233114	-0.969907	0.581340	-0.426161	-0.969907	0.404415	-0.426161	-0.798747	0.328585	-0.357418	-0.741694	0.202190	-0.271499	-0.684640	2.527516	-1.982732	-5.077018	0.000000	0.000000	23.760571	5.017458	16.761134	34.797711	-2.080570	119.351930	34.535697	91.574459	-18.034040	-2.950328	17.790158	-7.162590	62.150383	39.884392	67.831149	4.892119	14.121848
0.283333	2.353984	-3.128224	99.931632	0.129837	0.600281	0.860807	9.526860	-3.260848	-17.856271	9.889896	0.172611	29.551286	17.030701	0.000000	11.187873	3.802381	14.686617	7.461041	0.130220	21.050426	-14.121523	0.000000	0.354026	-0.166423	-0.879942	0.657462	-0.221343	-0.934938	0.581629	-0.404642	-0.934938	0.404616	-0.404642	-0.769949	0.328748	-0.339370	-0.714953	0.202290	-0.257790	-0.659956	2.528772	-1.882613	-4.893973	0.000000	0.000000	23.851486	5.079045	16.933704	34.493834	-2.385024	117.892137	34.624080	91.330998	-17.383815	-2.987393	17.739031	-7.178434	62.242413	39.896791	65.545736	4.272302	13.937487
0.300000	2.377706	-3.140821	99.758501	0.129975	0.600253	0.861116	9.627874	-3.250583	-17.860445	10.039161	0.175216	29.427883	17.020409	0.000000	11.213921	3.768751	14.621482	7.467636	0.130335	20.954308	-14.289651	0.000000	0.353895	-0.156212	-0.827136	0.657219	-0.207762	-0.878832	0.581414	-0.379813	-0.878832	0.404467	-0.379813	-0.723744	0.328627	-0.318547	-0.672048	0.202216	-0.241972	-0.620352	2.527837	-1.767099	-4.600281	0.000000	0.000000	23.950762	5.103766	17.095209	34.108584	-2.796715	116.023468	34.769312	89.942819	-16.388711	-3.041544	17.756011	-7.234873	62.578408	39.894154	63.163782	3.594610	13.281327
